<svg width="152" height="152" viewBox="0 0 152 152" fill="none" xmlns="http://www.w3.org/2000/svg">
<path d="M126.9 49.9C127 51 127 52.2 127 53.3C127 88 100.6 128 52.3 128C38.0115 128.024 24.0193 123.927 12 116.2C14.1 116.5 16.2 116.6 18.3 116.6C30.1268 116.598 41.6091 112.618 50.9 105.3C45.4134 105.212 40.0918 103.41 35.6805 100.146C31.2693 96.8825 27.9893 92.3208 26.3 87.1C30.2 87.9 34.3 87.7 38.2 86.6C25.9 84.1 17.1 73.4 17.1 60.9V60.6C20.7456 62.6361 24.8265 63.7678 29 63.9C17.5 56.1 13.9 40.8 20.9 28.8C27.4922 36.9052 35.7155 43.5333 45.0359 48.2537C54.3563 52.9742 64.5653 55.6816 75 56.2C73.96 51.717 74.1146 47.0397 75.4482 42.6351C76.7819 38.2306 79.2479 34.2531 82.6 31.1C93.2 21.2 109.8 21.7 119.8 32.2C125.691 31.0337 131.339 28.8692 136.5 25.8C134.538 31.9157 130.414 37.1064 124.9 40.4C130.111 39.7998 135.201 38.4176 140 36.3C136.476 41.5755 132.04 46.1809 126.9 49.9Z" fill="#1D9BF0"/>
</svg>
