<svg width="132" height="132" viewBox="0 0 132 132" fill="none" xmlns="http://www.w3.org/2000/svg">
    <path
        d="M108.6 85.6V40.5L69.5 18V35.3L84.8 44.1C85.4 44.4 85.4 45.3 84.8 45.6L66.6 56.1C66.1 56.4 65.4 56.4 64.9 56.1L46.7 45.6C46.1 45.3 46.1 44.4 46.7 44.1L62 35.3V18L23 40.5V85.6L38 77V59.3C38 58.7 38.7 58.2 39.3 58.6L57.5 69.1C58 69.4 58.4 70 58.4 70.6V91.6C58.4 92.2 57.7 92.7 57.1 92.3L41.8 83.5L26.8 92.1L65.8 114.6L104.8 92.1L89.8 83.5L74.5 92.3C74 92.6 73.2 92.2 73.2 91.6V70.6C73.2 70 73.5 69.4 74.1 69.1L92.3 58.6C92.8 58.3 93.6 58.7 93.6 59.3V77L108.6 85.6Z"
        fill="#CCCCCC" />
    <path
        d="M65.8 114.6L104.8 92.1L89.8 83.5L74.5 92.3C74 92.6 73.2 92.2 73.2 91.6V70.6C73.2 70 73.5 69.4 74.1 69.1L92.3 58.6C92.8 58.3 93.6 58.7 93.6 59.3V77L108.6 85.6V40.5L65.8 65.2V114.6Z"
        fill="#A6A6A6" />
    <path
        d="M69.5 18V35.3L84.8 44.1C85.4 44.4 85.4 45.3 84.8 45.6L66.6 56.1C66.1 56.4 65.4 56.4 64.9 56.1L46.7 45.6C46.1 45.3 46.1 44.4 46.7 44.1L62 35.3V18L23 40.5L65.8 65.2L108.6 40.5L69.5 18Z"
        fill="white" />
    <path
        d="M57 92.3L41.7 83.5L26.7 92.1L65.7 114.6V65.2L23 40.5V85.6L38 77V59.3C38 58.7 38.7 58.2 39.3 58.6L57.5 69.1C58 69.4 58.4 70 58.4 70.6V91.6C58.3 92.2 57.6 92.6 57 92.3Z"
        fill="#CCCCCC" />
</svg>